<svg xmlns="http://www.w3.org/2000/svg" width="100%" viewBox="0 0 329 180" fill="none"><path d="M186.125 3.61426H223.229V72.763H291.655V3.61426H329V175.884H291.655V103.603H223.229V175.884H186.125V3.61426Z" fill="#080807"></path><path d="M85.0505 179.497C67.5425 179.497 52.3635 175.643 39.5135 167.933C26.8242 160.223 17.0262 149.621 10.1193 136.129C3.37311 122.476 0 106.976 0 89.6283C0 72.2809 3.37311 56.861 10.1193 43.3685C17.0262 29.7155 26.8242 19.1143 39.5135 11.5649C52.3635 3.85498 67.5425 0 85.0505 0C102.398 0 117.497 3.85498 130.347 11.5649C143.196 19.1143 152.995 29.7155 159.741 43.3685C166.648 56.861 170.101 72.2809 170.101 89.6283C170.101 106.976 166.648 122.476 159.741 136.129C152.995 149.621 143.196 160.223 130.347 167.933C117.497 175.643 102.398 179.497 85.0505 179.497ZM85.0505 148.899C96.1336 148.899 105.129 146.329 112.035 141.189C119.103 135.888 124.162 128.821 127.214 119.986C130.427 111.152 132.033 101.033 132.033 89.6283C132.033 78.3846 130.427 68.3456 127.214 59.5113C124.162 50.6769 119.103 43.6898 112.035 38.5498C105.129 33.2492 96.1336 30.5989 85.0505 30.5989C73.9674 30.5989 64.8922 33.2492 57.8247 38.5498C50.9179 43.6898 45.9385 50.6769 42.8867 59.5113C39.8348 68.185 38.3089 78.224 38.3089 89.6283C38.3089 101.033 39.8348 111.152 42.8867 119.986C45.9385 128.821 50.9179 135.888 57.8247 141.189C64.8922 146.329 73.9674 148.899 85.0505 148.899Z" fill="#080807"></path></svg>